<?xml version="1.0" standalone="no"?><svg xmlns="http://www.w3.org/2000/svg" viewBox="0 0 1440 320"><path fill="#dde1e9" fill-opacity="1" d="M0,288L34.3,288C68.6,288,137,288,206,288C274.3,288,343,288,411,277.3C480,267,549,245,617,213.3C685.7,181,754,139,823,144C891.4,149,960,203,1029,234.7C1097.1,267,1166,277,1234,234.7C1302.9,192,1371,96,1406,48L1440,0L1440,0L1405.7,0C1371.4,0,1303,0,1234,0C1165.7,0,1097,0,1029,0C960,0,891,0,823,0C754.3,0,686,0,617,0C548.6,0,480,0,411,0C342.9,0,274,0,206,0C137.1,0,69,0,34,0L0,0Z"></path></svg>